<?xml version="1.0" encoding="UTF-8"?>
<!DOCTYPE svg PUBLIC "-//W3C//DTD SVG 1.1//EN" "http://www.w3.org/Graphics/SVG/1.1/DTD/svg11.dtd">
<!-- Creator: CorelDRAW 2020 (64 Bit) -->
<svg xmlns="http://www.w3.org/2000/svg" xml:space="preserve" width="103.819mm" height="102.326mm" version="1.1" style="shape-rendering:geometricPrecision; text-rendering:geometricPrecision; image-rendering:optimizeQuality; fill-rule:evenodd; clip-rule:evenodd"
viewBox="0 0 1450.78 1429.92"
 xmlns:xlink="http://www.w3.org/1999/xlink"
 xmlns:xodm="http://www.corel.com/coreldraw/odm/2003">
 <defs>
  <style type="text/css">
   <![CDATA[
    .fil16 {fill:#FEFEFE;fill-rule:nonzero}
    .fil9 {fill:#FFF1D3;fill-rule:nonzero}
    .fil19 {fill:#F9A631;fill-rule:nonzero}
    .fil2 {fill:#F89833;fill-rule:nonzero}
    .fil17 {fill:#F05736;fill-rule:nonzero}
    .fil8 {fill:#FCCE29;fill-rule:nonzero}
    .fil10 {fill:#E9B58A;fill-rule:nonzero}
    .fil21 {fill:#D68F5D;fill-rule:nonzero}
    .fil15 {fill:#D2D2D3;fill-rule:nonzero}
    .fil1 {fill:#BEE2D0;fill-rule:nonzero}
    .fil18 {fill:#BBAD40;fill-rule:nonzero}
    .fil6 {fill:#79C798;fill-rule:nonzero}
    .fil20 {fill:#57B6B2;fill-rule:nonzero}
    .fil3 {fill:#50BA76;fill-rule:nonzero}
    .fil13 {fill:#33958C;fill-rule:nonzero}
    .fil7 {fill:#319D56;fill-rule:nonzero}
    .fil0 {fill:#23A25E;fill-rule:nonzero}
    .fil5 {fill:#2C864C;fill-rule:nonzero}
    .fil14 {fill:#3263A2;fill-rule:nonzero}
    .fil12 {fill:#31476E;fill-rule:nonzero}
    .fil22 {fill:#32466D;fill-rule:nonzero}
    .fil11 {fill:#344B7E;fill-rule:nonzero}
    .fil4 {fill:#0D7746;fill-rule:nonzero}
   ]]>
  </style>
 </defs>
 <g id="Camada_x0020_1">
  <metadata id="CorelCorpID_0Corel-Layer"/>
  <g id="_728306892064">
   <path class="fil0" d="M231.38 841.92l-100.66 9.37 37.04 37.05 -85.69 85.7c-4.67,4.67 -4.67,12.23 0,16.9 2.34,2.34 5.39,3.5 8.45,3.5 3.06,0 6.12,-1.17 8.45,-3.5l85.7 -85.7 37.34 37.35 9.37 -100.67z"/>
   <path class="fil1" d="M752.3 1403.59c0,14.54 -128.01,26.33 -285.92,26.33 -157.91,0 -285.92,-11.79 -285.92,-26.33 0,-14.53 128.01,-26.32 285.92,-26.32 157.91,0 285.92,11.79 285.92,26.32z"/>
   <path class="fil1" d="M1296.09 1279.69c0,14.49 -104.65,26.23 -233.73,26.23 -129.09,0 -233.73,-11.75 -233.73,-26.23 0,-14.49 104.64,-26.23 233.73,-26.23 129.08,0 233.73,11.75 233.73,26.23z"/>
   <path class="fil1" d="M213.29 1305.92c0,5.27 -46.98,9.54 -104.94,9.54 -57.96,0 -104.94,-4.27 -104.94,-9.54 0,-5.27 46.98,-9.54 104.94,-9.54 57.96,0 104.94,4.27 104.94,9.54z"/>
   <path class="fil2" d="M629.04 575.05c-7.08,0 -11.14,4.99 -11.14,13.69 0,8.81 4.07,13.86 11.14,13.86 7.08,0 11.31,-5.19 11.31,-13.86 0,-8.71 -4.12,-13.69 -11.31,-13.69zm0 41.17c-15.79,0 -26.81,-11.3 -26.81,-27.48 0,-16.08 11.03,-27.31 26.81,-27.31 15.88,0 26.97,11.23 26.97,27.31 0,16.18 -11.09,27.48 -26.97,27.48zm-15.59 71.97l73.44 -125.07 18.81 0 -73.25 125.07 -19 0zm76.85 -39.3c-7.19,0 -11.31,4.99 -11.31,13.7 0,8.7 4.13,13.69 11.31,13.69 7.08,0 11.14,-4.99 11.14,-13.69 0,-8.71 -4.06,-13.7 -11.14,-13.7zm0 41.18c-15.78,0 -26.8,-11.3 -26.8,-27.48 0,-16.18 11.02,-27.48 26.8,-27.48 15.78,0 26.8,11.3 26.8,27.48 0,16.18 -11.02,27.48 -26.8,27.48z"/>
   <polygon class="fil3" points="1252.98,437.24 782.99,437.24 876.04,530.29 446.83,971.48 675.8,1229.07 1128.49,782.73 1252.98,907.22 "/>
   <path class="fil4" d="M505.59 972.81l172.27 193.8 450.85 -444.51 81.24 81.24 0 -323.06 -323.06 0 49.6 49.6 -430.9 442.94zm171.35 221.56l-197.47 -222.15 430.14 -442.16 -68.91 -68.91 388.36 0 0 388.35 -100.46 -100.46 -451.67 445.32z"/>
   <polygon class="fil5" points="802.73,903.12 656.04,756.43 446.83,971.48 675.8,1229.07 685.21,1219.79 "/>
   <polygon class="fil6" points="372.57,1333.28 120.12,1080.83 550.28,650.67 802.73,903.12 "/>
   <path class="fil7" d="M624.7 957.43c-35.55,35.55 -93.18,35.55 -128.74,0 -35.54,-35.55 -35.54,-93.19 0,-128.73 35.55,-35.55 93.19,-35.55 128.74,0 35.55,35.54 35.55,93.18 0,128.73z"/>
   <path class="fil3" d="M403.91 1181.37c0,15.8 -12.82,28.62 -28.62,28.62 -15.81,0 -28.63,-12.82 -28.63,-28.62 0,-15.81 12.82,-28.62 28.63,-28.62 15.8,0 28.62,12.81 28.62,28.62z"/>
   <path class="fil3" d="M294.2 1081.2c0,15.8 -12.82,28.62 -28.62,28.62 -15.81,0 -28.62,-12.82 -28.62,-28.62 0,-15.81 12.81,-28.62 28.62,-28.62 15.8,0 28.62,12.82 28.62,28.62z"/>
   <polygon class="fil4" points="773.67,874.06 372.6,1272.45 181,1080.85 582.08,682.47 568.56,668.95 153.91,1080.81 372.55,1299.44 787.19,887.58 "/>
   <path class="fil8" d="M860.4 1022.78c-1.51,-81.96 63.69,-149.59 145.65,-151.11 81.93,-1.49 149.59,63.72 151.08,145.69 1.5,81.94 -63.71,149.59 -145.62,151.09 -81.97,1.49 -149.62,-63.71 -151.11,-145.67z"/>
   <path class="fil2" d="M888.74 1022.26c-1.24,-66.32 51.53,-121 117.83,-122.22 66.3,-1.21 121,51.53 122.22,117.82 1.24,66.29 -51.53,121.03 -117.82,122.24 -66.3,1.22 -121.02,-51.54 -122.23,-117.84z"/>
   <path class="fil9" d="M1008.78 892.27c-0.79,0 -1.57,0.01 -2.36,0.03 -34.13,0.63 -65.98,14.51 -89.67,39.07 -23.68,24.56 -36.38,56.9 -35.74,91.02 0.62,34.14 14.49,65.98 39.07,89.67 24.57,23.69 56.76,36.52 91.03,35.76 34.12,-0.62 65.96,-14.5 89.66,-39.08 23.69,-24.58 36.4,-56.91 35.75,-91.04 -1.29,-69.65 -58.37,-125.44 -127.74,-125.44zm-0.09 260.36c-34.48,0 -67.04,-13.12 -91.93,-37.12 -25.49,-24.58 -39.89,-57.62 -40.53,-93.02 -0.66,-35.41 12.51,-68.95 37.09,-94.43 24.58,-25.49 57.61,-39.88 93.03,-40.53 0.81,-0.02 1.63,-0.02 2.44,-0.02 71.98,0 131.19,57.87 132.52,130.13 0.66,35.41 -12.51,68.95 -37.09,94.45 -24.57,25.5 -57.62,39.89 -93.01,40.54 -0.84,0.01 -1.68,0.02 -2.51,0.02z"/>
   <path class="fil8" d="M989.87 1093.63c-10.6,-1.3 -20.64,-4.73 -27.67,-9.57l-5.95 -4.1 10.91 -32.26 10.29 6.56c6.78,4.32 15.42,6.8 23.72,6.8l0.76 -0.01c6.88,-0.14 14.87,-3.07 14.72,-10.87 -0.08,-4.18 -1.51,-9.16 -17.56,-15.3 -19.85,-7.39 -40.29,-18.4 -40.74,-43.74 -0.34,-19.06 11.56,-34.82 30.31,-41.2l-0.42 -13.24 31.9 -0.62 0.37 11.26c8.13,1.08 15.43,3.48 22.15,7.26l7.04 3.96 -11.39 31.83 -9.83 -5.4c-2.92,-1.6 -9.75,-5.34 -20.42,-5.34l-0.86 0c-7.77,0.15 -12.17,3.2 -12.08,8.36 0.07,3.79 1.54,7.05 19.88,14.25 17.71,6.85 38.15,18.27 38.65,45.8 0.38,19.97 -12.08,36.48 -31.71,43.09l0.45 13.85 -32.1 0.62 -0.42 -11.99z"/>
   <path class="fil8" d="M0.02 1064.23c-1.05,-57.54 44.71,-105.01 102.25,-106.07 57.52,-1.05 105.01,44.73 106.06,102.26 1.05,57.51 -44.72,105.01 -102.23,106.06 -57.53,1.05 -105.03,-44.72 -106.08,-102.26z"/>
   <path class="fil2" d="M19.91 1063.87c-0.87,-46.55 36.17,-84.94 82.72,-85.8 46.54,-0.85 84.94,36.17 85.79,82.71 0.87,46.54 -36.17,84.96 -82.71,85.8 -46.54,0.86 -84.95,-36.17 -85.8,-82.72z"/>
   <path class="fil9" d="M104.18 972.62c-0.55,0 -1.1,0.01 -1.66,0.02 -23.96,0.44 -46.32,10.19 -62.95,27.42 -16.62,17.25 -25.54,39.94 -25.09,63.91 0.43,23.96 10.18,46.31 27.43,62.95 17.25,16.63 39.84,25.63 63.91,25.1 23.95,-0.44 46.3,-10.18 62.94,-27.43 16.63,-17.25 25.55,-39.95 25.1,-63.91 -0.91,-48.89 -40.97,-88.05 -89.67,-88.05zm-0.06 182.77c-24.21,0 -47.06,-9.22 -64.53,-26.07 -17.9,-17.25 -28,-40.45 -28.45,-65.3 -0.47,-24.85 8.78,-48.4 26.03,-66.3 17.25,-17.89 40.44,-28 65.3,-28.45 0.57,-0.01 1.15,-0.01 1.72,-0.01 50.53,0 92.09,40.62 93.03,91.34 0.46,24.85 -8.78,48.4 -26.04,66.31 -17.25,17.9 -40.44,28.01 -65.29,28.46 -0.59,0.01 -1.18,0.02 -1.76,0.02z"/>
   <path class="fil8" d="M90.91 1113.97c-7.44,-0.92 -14.49,-3.32 -19.42,-6.72l-4.18 -2.87 7.66 -22.64 7.23 4.61c4.76,3.03 10.82,4.77 16.65,4.77l0.54 0c4.83,-0.1 10.44,-2.16 10.33,-7.63 -0.05,-2.94 -1.06,-6.43 -12.33,-10.74 -13.93,-5.19 -28.28,-12.92 -28.6,-30.71 -0.24,-13.37 8.12,-24.44 21.28,-28.93l-0.3 -9.29 22.39 -0.44 0.26 7.91c5.7,0.76 10.83,2.44 15.55,5.09l4.95 2.78 -8 22.35 -6.9 -3.78c-2.05,-1.13 -6.84,-3.75 -14.34,-3.75l-0.6 0c-5.45,0.1 -8.54,2.24 -8.48,5.86 0.05,2.67 1.08,4.95 13.96,10.01 12.43,4.81 26.78,12.83 27.13,32.15 0.26,14.02 -8.48,25.61 -22.26,30.25l0.32 9.73 -22.53 0.43 -0.3 -8.42z"/>
   <path class="fil8" d="M1048.07 1146.76c-1.06,-57.54 44.71,-105 102.25,-106.07 57.51,-1.05 105.01,44.73 106.05,102.27 1.05,57.52 -44.73,105.01 -102.23,106.06 -57.53,1.05 -105.03,-44.72 -106.07,-102.26z"/>
   <path class="fil2" d="M1067.97 1146.39c-0.87,-46.55 36.17,-84.94 82.71,-85.79 46.54,-0.85 84.94,36.17 85.8,82.71 0.87,46.54 -36.18,84.96 -82.71,85.81 -46.54,0.86 -84.95,-36.19 -85.8,-82.73z"/>
   <path class="fil9" d="M1152.24 1055.15c-0.56,0 -1.1,0.01 -1.66,0.02 -23.96,0.44 -46.32,10.18 -62.94,27.42 -16.62,17.25 -25.54,39.94 -25.09,63.91 0.44,23.96 10.18,46.31 27.43,62.94 17.25,16.63 39.84,25.64 63.91,25.11 23.95,-0.44 46.3,-10.18 62.93,-27.43 16.64,-17.26 25.55,-39.95 25.1,-63.91 -0.9,-48.89 -40.97,-88.05 -89.67,-88.05zm-0.06 182.77c-24.21,0 -47.06,-9.21 -64.53,-26.06 -17.9,-17.25 -28,-40.45 -28.46,-65.3 -0.47,-24.86 8.79,-48.4 26.04,-66.3 17.25,-17.89 40.44,-27.99 65.3,-28.45 0.57,-0.01 1.15,-0.02 1.72,-0.02 50.53,0 92.09,40.62 93.03,91.35 0.46,24.85 -8.78,48.4 -26.04,66.3 -17.25,17.9 -40.44,28.01 -65.29,28.46 -0.59,0.01 -1.18,0.02 -1.76,0.02z"/>
   <path class="fil8" d="M1138.96 1196.5c-7.44,-0.91 -14.49,-3.32 -19.43,-6.72l-4.17 -2.87 7.66 -22.64 7.22 4.6c4.76,3.04 10.83,4.77 16.66,4.77l0.54 -0c4.83,-0.1 10.44,-2.15 10.33,-7.63 -0.06,-2.94 -1.06,-6.43 -12.33,-10.74 -13.93,-5.19 -28.28,-12.91 -28.6,-30.71 -0.24,-13.37 8.11,-24.43 21.27,-28.92l-0.3 -9.29 22.39 -0.44 0.26 7.9c5.7,0.77 10.83,2.45 15.55,5.1l4.95 2.77 -8 22.35 -6.89 -3.78c-2.05,-1.12 -6.84,-3.75 -14.34,-3.75l-0.6 0.01c-5.45,0.1 -8.54,2.24 -8.48,5.87 0.05,2.66 1.08,4.95 13.96,10 12.43,4.81 26.78,12.83 27.13,32.15 0.27,14.02 -8.48,25.61 -22.26,30.25l0.31 9.72 -22.53 0.44 -0.3 -8.42z"/>
   <path class="fil2" d="M1450.78 673.56l-100.66 9.37 37.05 37.05 -85.7 85.7c-4.67,4.67 -4.67,12.24 0,16.9 2.33,2.34 5.39,3.5 8.45,3.5 3.06,0 6.11,-1.16 8.45,-3.5l85.7 -85.69 37.34 37.34 9.37 -100.67z"/>
   <path class="fil0" d="M1397.86 896.98l-100.66 9.37 37.05 37.05 -85.7 85.7c-4.66,4.67 -4.66,12.23 0,16.9 2.34,2.34 5.4,3.5 8.45,3.5 3.06,0 6.12,-1.17 8.45,-3.5l85.7 -85.69 37.34 37.34 9.37 -100.67z"/>
   <path class="fil8" d="M1109.07 231.35l-100.66 9.37 37.05 37.05 -85.7 85.7c-4.67,4.67 -4.67,12.23 0,16.91 2.34,2.33 5.39,3.5 8.45,3.5 3.06,0 6.11,-1.17 8.45,-3.5l85.69 -85.7 37.34 37.34 9.37 -100.67z"/>
   <polygon class="fil10" points="343.08,1358.52 344.67,1383.96 378.06,1387.14 378.06,1359.31 "/>
   <polygon class="fil10" points="486.18,1357.73 489.36,1383.16 511.62,1383.16 516.39,1359.31 "/>
   <path class="fil11" d="M319.23 801.22c0,0 -12.19,26.5 -11.13,44.52 1.06,18.02 11.13,47.7 11.13,47.7l11.13 470.64c0,0 40.28,7.42 57.24,0 -3.18,0 17.49,-449.97 17.49,-449.97l9.54 1.59c0,0 27.45,147.42 30.21,170.13 6.36,52.48 28.62,276.13 28.62,276.13 0,0 38.16,5.3 55.13,-3.18 1.06,-2.12 -7.42,-236.38 -15.37,-309.52 -7.95,-73.14 -36.57,-228.96 -42.93,-244.86l-151.05 -3.18z"/>
   <path class="fil12" d="M438.48 311.5c0,0 25.44,-4.77 23.85,-23.85 -1.59,-19.08 -23.85,-23.85 -42.92,-15.9 -19.08,7.95 -33.39,19.08 -49.29,22.26 -15.9,3.18 -38.16,14.31 -38.16,46.11 0,31.8 47.7,46.11 47.7,46.11l58.84 -74.73z"/>
   <path class="fil13" d="M269.94 495.94c0,0 63.59,-41.34 114.48,-38.16 50.88,3.18 133.56,34.98 133.56,34.98 0,0 11.13,73.14 -7.95,117.66 -19.08,44.52 -41.34,187.62 -39.75,193.98 -54.06,28.62 -141.51,-3.18 -141.51,-3.18 0,0 0,-112.89 -9.54,-155.82 -9.54,-42.93 -47.7,-87.45 -47.7,-87.45l-1.59 -62.01z"/>
   <path class="fil12" d="M389.19 495.94c4.77,3.18 20.68,27.03 20.68,27.03l-7.95 179.67 23.85 34.99 23.85 -54.06 -27.03 -162.18 17.49 -25.44 -25.44 -33.39 -15.9 11.13 -9.54 22.26z"/>
   <path class="fil14" d="M460.09 798.58l-339.41 0c-14.41,0 -26.09,-11.68 -26.09,-26.1l0 -194.37c0,-14.41 11.68,-26.09 26.09,-26.09l339.41 0c14.41,0 26.1,11.68 26.1,26.09l0 194.37c0,14.41 -11.69,26.1 -26.1,26.1z"/>
   <path class="fil15" d="M121.62 607.46c0,6.14 4.33,10.41 10,10.41 4.56,0 7.95,-2.28 9.42,-6.14l-2.4 0c-1.14,2.66 -3.54,4.36 -7.02,4.36 -4.48,0 -7.9,-3.3 -7.9,-8.63 0,-5.35 3.42,-8.66 7.9,-8.66 3.48,0 5.88,1.7 7.02,4.42l2.4 0c-1.46,-3.92 -4.85,-6.2 -9.42,-6.2 -5.67,0 -10,4.3 -10,10.44zm35.21 -4.27c0,2.49 -1.49,4.3 -4.83,4.3l-4.12 0 0 -8.51 4.09 0c3.45,0 4.85,1.64 4.85,4.21zm-10.99 -5.94l0 20.44 2.05 0 0 -8.54 3.77 0 5.06 8.54 2.46 0 -5.27 -8.69c3.45,-0.64 5.03,-3.01 5.03,-5.82 0,-3.36 -2.22,-5.94 -6.96,-5.94l-6.14 0zm28.58 -0.03l-10.67 0 0 20.47 10.67 0 0 -1.7 -8.63 0 0 -7.75 7.75 0 0 -1.7 -7.75 0 0 -7.63 8.63 0 0 -1.7zm10.82 0.03l-6.05 0 0 20.44 6.05 0c6.81,0 10.82,-3.83 10.82,-10.18 0,-6.4 -4.01,-10.26 -10.82,-10.26zm-4.01 18.74l0 -17.05 4.01 0c5.79,0 8.74,3.27 8.74,8.57 0,5.27 -2.95,8.48 -8.74,8.48l-4.01 0zm19.33 1.7l2.05 0 0 -20.44 -2.05 0 0 20.44zm5.97 -18.75l5.7 0 0 18.75 2.05 0 0 -18.75 5.67 0 0 -1.7 -13.42 0 0 1.7zm25.21 8.51c0,6.14 4.33,10.41 10,10.41 4.56,0 7.95,-2.28 9.42,-6.14l-2.4 0c-1.14,2.66 -3.54,4.36 -7.02,4.36 -4.48,0 -7.9,-3.3 -7.9,-8.63 0,-5.35 3.42,-8.66 7.9,-8.66 3.48,0 5.88,1.7 7.02,4.42l2.4 0c-1.46,-3.92 -4.86,-6.2 -9.42,-6.2 -5.67,0 -10,4.3 -10,10.44zm37.84 10.24l2.16 0 -7.43 -20.18 -2.31 0 -7.46 20.18 2.16 0 1.78 -4.85 9.3 0 1.78 4.85zm-2.4 -6.55l-8.07 0 4.04 -11.05 4.04 11.05zm19.56 -7.96c0,2.49 -1.49,4.3 -4.83,4.3l-4.12 0 0 -8.51 4.09 0c3.45,0 4.85,1.64 4.85,4.21zm-10.99 -5.94l0 20.44 2.05 0 0 -8.54 3.77 0 5.06 8.54 2.46 0 -5.27 -8.69c3.45,-0.64 5.03,-3.01 5.03,-5.82 0,-3.36 -2.22,-5.94 -6.96,-5.94l-6.14 0zm23.95 0l-6.05 0 0 20.44 6.05 0c6.81,0 10.82,-3.83 10.82,-10.18 0,-6.4 -4.01,-10.26 -10.82,-10.26zm-4.01 18.74l0 -17.05 4.01 0c5.79,0 8.74,3.27 8.74,8.57 0,5.27 -2.95,8.48 -8.74,8.48l-4.01 0z"/>
   <polygon class="fil8" points="125.41,690.19 198.44,690.19 198.44,635.41 125.41,635.41 "/>
   <polygon class="fil15" points="125.41,732.49 198.44,732.49 198.44,704.09 125.41,704.09 "/>
   <polygon class="fil16" points="125.41,760.51 290.38,760.51 290.38,742.68 125.41,742.68 "/>
   <polygon class="fil15" points="214.67,732.49 287.71,732.49 287.71,704.09 214.67,704.09 "/>
   <polygon class="fil15" points="303.94,732.49 376.97,732.49 376.97,704.09 303.94,704.09 "/>
   <polygon class="fil15" points="393.2,732.49 466.23,732.49 466.23,704.09 393.2,704.09 "/>
   <path class="fil17" d="M428.16 613.66c0,17.02 -13.8,30.82 -30.82,30.82 -17.02,0 -30.82,-13.8 -30.82,-30.82 0,-17.02 13.8,-30.82 30.82,-30.82 17.03,0 30.82,13.8 30.82,30.82z"/>
   <path class="fil18" d="M426.35 644.48c-5.24,0 -10.18,-1.31 -14.5,-3.62 9.71,-5.19 16.31,-15.42 16.31,-27.2 0,-11.78 -6.6,-22.01 -16.31,-27.2 4.32,-2.31 9.26,-3.62 14.5,-3.62 17.02,0 30.82,13.8 30.82,30.82 0,17.02 -13.8,30.82 -30.82,30.82z"/>
   <path class="fil19" d="M411.85 640.86c-9.71,-5.19 -16.32,-15.42 -16.32,-27.2 0,-11.78 6.61,-22.01 16.32,-27.2 9.71,5.19 16.31,15.42 16.31,27.2 0,11.78 -6.6,22.01 -16.31,27.2z"/>
   <polygon class="fil13" points="433.18,464.14 634.05,472.09 707.19,325.81 750.12,354.43 667.44,534.1 505.26,586.57 "/>
   <path class="fil20" d="M250.86 511.84c0,0 -96.99,95.4 -93.81,138.33 3.18,42.93 154.23,124.02 154.23,124.02l36.57 -41.34 -112.89 -84.27 76.32 -90.63c0,0 26.24,-23.65 6.36,-54.06 -27.03,-41.34 -66.78,7.95 -66.78,7.95z"/>
   <path class="fil21" d="M379.64 386.23l4.77 71.55c0,0 22.26,30.21 55.65,-1.59l-1.59 -33.39 -58.84 -36.57z"/>
   <path class="fil10" d="M376.47 362.38c0,0 -23.85,14.31 -12.72,30.21 11.13,15.9 28.62,9.54 28.62,9.54 0,0 17.49,34.98 50.88,41.34 33.39,6.36 46.11,-31.8 46.11,-49.29 0,-17.49 -49.29,-103.35 -49.29,-103.35l-46.11 25.44c0,0 6.36,44.52 -17.49,46.11z"/>
   <path class="fil16" d="M363.75 480.04l20.67 -38.16c0,0 9.54,23.85 30.21,20.67 20.67,-3.18 28.62,-19.08 28.62,-19.08l19.08 34.98 -28.62 33.39 -17.49 -31.8 -25.44 30.21 -27.02 -30.21z"/>
   <path class="fil10" d="M311.28 774.19c0,0 3.18,19.08 17.49,27.03 14.31,7.95 49.29,4.77 49.29,4.77 0,0 11.13,-1.59 20.67,-9.54 9.54,-7.95 -50.88,-63.6 -50.88,-63.6l-36.57 41.34z"/>
   <path class="fil10" d="M709.84 327.4c0,0 3.18,-25.44 10.6,-39.22 7.42,-13.78 30.74,-55.12 37.1,-53 6.36,2.12 -13.78,46.64 -13.78,46.64 0,0 13.78,-12.71 22.26,-5.3 8.48,7.42 13.78,31.8 8.48,39.22 -5.3,7.42 -32.86,33.92 -32.86,33.92l-31.8 -22.26z"/>
   <path class="fil22" d="M335.13 1410.99c0,0 -3.97,-22.26 7.95,-34.98 1.59,-0.79 22.26,7.16 34.98,0.8 3.18,0 77.91,13.52 81.09,31.01 -7.95,1.59 -87.45,0 -87.45,0l-12.72 -4.77 1.59 8.75c0,0 -25.44,-2.39 -25.44,-0.8z"/>
   <path class="fil22" d="M477.17 1410.99c0,0 -3.97,-22.26 7.95,-34.98 1.59,-0.79 22.26,7.16 34.98,0.8 3.18,0 77.91,13.52 81.09,31.01 -7.95,1.59 -87.45,0 -87.45,0l-12.72 -4.77 1.59 8.75c0,0 -25.44,-2.39 -25.44,-0.8z"/>
   <path class="fil8" d="M834.46 50.88l0 0c-4.08,0 -7.42,-3.34 -7.42,-7.42l0 -36.04c0,-4.08 3.33,-7.42 7.42,-7.42 4.08,0 7.42,3.34 7.42,7.42l0 36.04c0,4.08 -3.34,7.42 -7.42,7.42z"/>
   <path class="fil8" d="M772.07 71.9l0 0c3.25,-2.47 3.88,-7.15 1.41,-10.4l-21.82 -28.69c-2.47,-3.25 -7.14,-3.88 -10.39,-1.41 -3.25,2.47 -3.88,7.15 -1.41,10.4l21.81 28.69c2.47,3.25 7.15,3.89 10.4,1.42z"/>
   <path class="fil8" d="M732 116.37l0 0c-2.16,3.47 -6.75,4.54 -10.22,2.38l-30.61 -19.02c-3.47,-2.16 -4.54,-6.75 -2.39,-10.22 2.16,-3.46 6.76,-4.53 10.22,-2.38l30.6 19.03c3.47,2.16 4.54,6.75 2.39,10.22z"/>
   <path class="fil8" d="M716.6 173.49l0 0c-0.16,-4.08 -3.63,-7.28 -7.71,-7.12l-36.01 1.43c-4.08,0.16 -7.29,3.63 -7.12,7.71 0.16,4.08 3.63,7.28 7.71,7.12l36.01 -1.43c4.08,-0.16 7.28,-3.63 7.12,-7.71z"/>
   <path class="fil8" d="M901.4 68.06l0 0c-3.39,-2.27 -4.31,-6.91 -2.03,-10.3l20.07 -29.93c2.27,-3.39 6.91,-4.3 10.29,-2.03 3.39,2.27 4.3,6.91 2.03,10.29l-20.07 29.94c-2.27,3.39 -6.91,4.3 -10.29,2.03z"/>
   <path class="fil8" d="M944.04 110.07l0 0c2.36,3.33 7.01,4.13 10.34,1.77l29.43 -20.81c3.33,-2.36 4.13,-7.01 1.77,-10.34 -2.35,-3.33 -7.01,-4.13 -10.34,-1.78l-29.43 20.81c-3.33,2.36 -4.13,7.01 -1.77,10.34z"/>
   <path class="fil8" d="M962.8 166.18l0 0c-0.08,-4.08 3.19,-7.48 7.28,-7.56l36.03 -0.72c4.08,-0.09 7.48,3.19 7.57,7.27 0.08,4.08 -3.19,7.48 -7.28,7.57l-36.03 0.71c-4.07,0.08 -7.48,-3.19 -7.56,-7.27z"/>
   <path class="fil8" d="M734.31 178.21c-1.06,-57.53 44.71,-105.01 102.24,-106.07 57.52,-1.04 105.01,44.74 106.06,102.27 1.06,57.52 -44.72,105.01 -102.22,106.06 -57.54,1.05 -105.03,-44.72 -106.07,-102.26z"/>
   <path class="fil2" d="M754.2 177.85c-0.87,-46.55 36.18,-84.94 82.71,-85.8 46.54,-0.85 84.94,36.17 85.8,82.71 0.87,46.54 -36.18,84.97 -82.71,85.81 -46.54,0.86 -84.95,-36.18 -85.8,-82.72z"/>
   <path class="fil9" d="M838.47 86.6c-0.55,0 -1.1,0 -1.66,0.01 -23.96,0.45 -46.31,10.18 -62.94,27.43 -16.63,17.25 -25.54,39.94 -25.1,63.9 0.44,23.96 10.18,46.32 27.43,62.95 17.25,16.63 39.84,25.63 63.9,25.11 23.95,-0.44 46.31,-10.18 62.94,-27.43 16.63,-17.26 25.55,-39.95 25.1,-63.91 -0.91,-48.89 -40.97,-88.05 -89.67,-88.05zm-0.07 182.77c-24.2,0 -47.05,-9.22 -64.53,-26.06 -17.9,-17.26 -28.01,-40.45 -28.46,-65.31 -0.46,-24.86 8.78,-48.4 26.03,-66.29 17.26,-17.89 40.45,-28 65.3,-28.45 0.57,-0.01 1.15,-0.01 1.72,-0.01 50.53,0 92.08,40.62 93.03,91.35 0.47,24.85 -8.78,48.4 -26.04,66.29 -17.25,17.9 -40.44,28.01 -65.3,28.46 -0.58,0.01 -1.17,0.02 -1.76,0.02z"/>
   <path class="fil8" d="M825.2 227.95c-7.45,-0.92 -14.49,-3.32 -19.43,-6.72l-4.18 -2.88 7.66 -22.64 7.23 4.61c4.75,3.03 10.82,4.77 16.65,4.77l0.53 -0.01c4.83,-0.1 10.45,-2.15 10.33,-7.63 -0.05,-2.94 -1.06,-6.43 -12.33,-10.74 -13.93,-5.19 -28.28,-12.92 -28.6,-30.71 -0.24,-13.37 8.12,-24.44 21.28,-28.93l-0.3 -9.29 22.39 -0.44 0.26 7.91c5.71,0.76 10.84,2.45 15.56,5.09l4.95 2.77 -8 22.35 -6.9 -3.79c-2.05,-1.12 -6.84,-3.75 -14.33,-3.75l-0.6 0c-5.46,0.1 -8.55,2.25 -8.48,5.87 0.04,2.67 1.07,4.95 13.96,10.01 12.43,4.81 26.78,12.83 27.13,32.15 0.27,14.02 -8.48,25.61 -22.25,30.25l0.32 9.73 -22.53 0.43 -0.3 -8.42z"/>
  </g>
 </g>
</svg>
