<?xml version="1.0" encoding="UTF-8"?>
<!DOCTYPE svg PUBLIC "-//W3C//DTD SVG 1.1//EN" "http://www.w3.org/Graphics/SVG/1.1/DTD/svg11.dtd">
<!-- Creator: CorelDRAW 2020 (64 Bit) -->
<svg xmlns="http://www.w3.org/2000/svg" xml:space="preserve" width="84px" height="153px" version="1.1" style="shape-rendering:geometricPrecision; text-rendering:geometricPrecision; image-rendering:optimizeQuality; fill-rule:evenodd; clip-rule:evenodd"
viewBox="0 0 1.03 1.88"
 xmlns:xlink="http://www.w3.org/1999/xlink"
 xmlns:xodm="http://www.corel.com/coreldraw/odm/2003">
 <defs>
  <style type="text/css">
   <![CDATA[
    .str0 {stroke:#0D7746;stroke-width:0.06;stroke-miterlimit:22.9256}
    .fil0 {fill:none;fill-rule:nonzero}
   ]]>
  </style>
 </defs>
 <g id="Camada_x0020_1">
  <metadata id="CorelCorpID_0Corel-Layer"/>
  <g id="_728569055152">
   <path class="fil0 str0" d="M0.91 1.1c-0.06,0.05 -0.13,0.12 -0.22,0.19 -0.13,0.11 -0.22,0.19 -0.26,0.23 -0.03,0.04 -0.07,0.08 -0.09,0.12l0.57 0"/>
   <path class="fil0 str0" d="M0.91 1.85l-0.88 0c0,-0.05 0.01,-0.1 0.03,-0.15 0.03,-0.08 0.08,-0.16 0.14,-0.24 0.07,-0.08 0.17,-0.17 0.3,-0.28 0.19,-0.16 0.33,-0.29 0.4,-0.38 0.07,-0.1 0.1,-0.19 0.1,-0.27 0,-0.09 -0.03,-0.16 -0.09,-0.22 -0.07,-0.07 -0.15,-0.1 -0.25,-0.1 -0.11,0 -0.2,0.04 -0.26,0.1 -0.07,0.06 -0.1,0.15 -0.1,0.27l-0.23 -0.03c0.02,-0.17 0.08,-0.3 0.18,-0.39 0.1,-0.09 0.24,-0.13 0.41,-0.13 0.1,0 0.18,0.01 0.25,0.04"/>
  </g>
 </g>
</svg>
