<?xml version="1.0" encoding="UTF-8"?>
<!DOCTYPE svg PUBLIC "-//W3C//DTD SVG 1.1//EN" "http://www.w3.org/Graphics/SVG/1.1/DTD/svg11.dtd">
<!-- Creator: CorelDRAW 2020 (64 Bit) -->
<svg xmlns="http://www.w3.org/2000/svg" xml:space="preserve" width="82px" height="155px" version="1.1" style="shape-rendering:geometricPrecision; text-rendering:geometricPrecision; image-rendering:optimizeQuality; fill-rule:evenodd; clip-rule:evenodd"
viewBox="0 0 0.8 1.5"
 xmlns:xlink="http://www.w3.org/1999/xlink"
 xmlns:xodm="http://www.corel.com/coreldraw/odm/2003">
 <defs>
  <style type="text/css">
   <![CDATA[
    .str0 {stroke:#0D7746;stroke-width:0.05;stroke-miterlimit:22.9256}
    .fil0 {fill:none;fill-rule:nonzero}
   ]]>
  </style>
 </defs>
 <g id="Camada_x0020_1">
  <metadata id="CorelCorpID_0Corel-Layer"/>
  <path class="fil0 str0" d="M0.69 1.44c-0.06,0.02 -0.13,0.04 -0.21,0.04 -0.13,0 -0.23,-0.04 -0.31,-0.11 -0.09,-0.08 -0.13,-0.18 -0.15,-0.29l0.18 -0.03c0.02,0.1 0.05,0.17 0.1,0.22 0.05,0.04 0.11,0.06 0.18,0.06 0.08,0 0.15,-0.03 0.21,-0.08 0.05,-0.06 0.08,-0.13 0.08,-0.22 0,-0.08 -0.02,-0.14 -0.08,-0.19 -0.05,-0.06 -0.12,-0.08 -0.2,-0.08 -0.03,0 -0.07,0 -0.12,0.02l0.02 -0.16c0.01,0 0.02,0.01 0.03,0.01 0.07,0 0.14,-0.02 0.2,-0.06 0.06,-0.04 0.09,-0.1 0.09,-0.18 0,-0.07 -0.02,-0.12 -0.07,-0.16 -0.04,-0.04 -0.1,-0.06 -0.16,-0.06 -0.07,0 -0.13,0.02 -0.17,0.06 -0.05,0.04 -0.08,0.11 -0.09,0.19l-0.18 -0.03c0.02,-0.11 0.07,-0.21 0.15,-0.27 0.07,-0.07 0.17,-0.1 0.28,-0.1 0.08,0 0.15,0.02 0.22,0.05"/>
 </g>
</svg>
