<?xml version="1.0" encoding="UTF-8"?>
<!DOCTYPE svg PUBLIC "-//W3C//DTD SVG 1.1//EN" "http://www.w3.org/Graphics/SVG/1.1/DTD/svg11.dtd">
<!-- Creator: CorelDRAW 2020 (64 Bit) -->
<svg xmlns="http://www.w3.org/2000/svg" xml:space="preserve" width="200px" height="200px" version="1.1" style="shape-rendering:geometricPrecision; text-rendering:geometricPrecision; image-rendering:optimizeQuality; fill-rule:evenodd; clip-rule:evenodd"
viewBox="0 0 4.62 4.62"
 xmlns:xlink="http://www.w3.org/1999/xlink"
 xmlns:xodm="http://www.corel.com/coreldraw/odm/2003">
 <defs>
  <style type="text/css">
   <![CDATA[
    .fil1 {fill:#FEFEFE;fill-rule:nonzero}
    .fil0 {fill:#2BC48A;fill-rule:nonzero}
   ]]>
  </style>
 </defs>
 <g id="Camada_x0020_1">
  <metadata id="CorelCorpID_0Corel-Layer"/>
  <g id="_728502500128">
   <path class="fil0" d="M4.62 2.31c0,1.28 -1.03,2.31 -2.31,2.31 -1.28,0 -2.31,-1.03 -2.31,-2.31 0,-1.28 1.03,-2.31 2.31,-2.31 1.28,0 2.31,1.03 2.31,2.31z"/>
   <path class="fil1" d="M2.03 0.85c0.06,0.05 0.07,0.12 0.06,0.2 -0.02,0.15 -0.04,0.3 -0.06,0.44 -0.01,0.03 -0.01,0.05 -0.02,0.07 -0.02,0.07 -0.07,0.1 -0.14,0.1 -0.05,0 -0.1,0 -0.15,-0.01 -0.05,0 -0.08,0.02 -0.11,0.06 -0.03,0.05 -0.05,0.1 -0.05,0.17 -0.01,0.34 0.07,0.67 0.24,0.97 0.04,0.07 0.08,0.12 0.12,0.18 0.03,0.03 0.07,0.05 0.12,0.07 0.03,0 0.06,0 0.09,-0.02 0.04,-0.03 0.07,-0.05 0.11,-0.08 0.08,-0.05 0.14,-0.05 0.21,0.02 0.04,0.03 0.07,0.07 0.1,0.11 0.07,0.07 0.13,0.15 0.19,0.22 0.02,0.02 0.03,0.04 0.04,0.06 0.04,0.05 0.07,0.11 0.05,0.18 -0.01,0.02 -0.02,0.03 -0.03,0.05 -0.03,0.03 -0.06,0.07 -0.09,0.1 -0.16,0.13 -0.34,0.18 -0.54,0.14 -0.04,-0.01 -0.08,-0.03 -0.12,-0.04 -0.02,-0.02 -0.05,-0.03 -0.08,-0.05 -0.03,-0.02 -0.06,-0.05 -0.09,-0.07 -0.16,-0.13 -0.26,-0.29 -0.36,-0.47 -0.11,-0.21 -0.19,-0.43 -0.26,-0.65 -0.08,-0.28 -0.14,-0.56 -0.16,-0.85 0,-0.16 0.01,-0.32 0.05,-0.48 0.01,-0.04 0.03,-0.09 0.05,-0.13 0.01,-0.03 0.03,-0.06 0.04,-0.09 0.01,0 0.01,-0.01 0.02,-0.01 0.14,-0.2 0.33,-0.28 0.57,-0.25 0.05,0 0.1,0.02 0.15,0.03 0.02,0.01 0.04,0.02 0.05,0.03z"/>
   <path class="fil1" d="M3.03 3.02c-0.01,0 -0.01,0 -0.02,-0.01 -0.07,-0.02 -0.1,-0.11 -0.05,-0.17 0.03,-0.04 0.07,-0.07 0.1,-0.11 0.1,-0.14 0.17,-0.29 0.21,-0.46 0.02,-0.09 0.03,-0.19 0.02,-0.28 -0.01,-0.25 -0.1,-0.47 -0.26,-0.66 -0.02,-0.03 -0.05,-0.05 -0.07,-0.08 -0.05,-0.05 -0.03,-0.14 0.04,-0.17 0.01,0 0.02,0 0.03,-0.01 0.01,0 0.02,0 0.03,0 0,0 0,0 0,0.01 0.02,0 0.04,0.01 0.06,0.03 0.11,0.11 0.2,0.24 0.27,0.38 0.07,0.15 0.11,0.3 0.12,0.47 0,0.01 0,0.03 0,0.04 0,0.03 0,0.06 0,0.09 0,0 0,0.01 0,0.01 -0.01,0.08 -0.02,0.16 -0.03,0.24 -0.06,0.25 -0.18,0.46 -0.36,0.64 -0.01,0.02 -0.04,0.03 -0.06,0.04 0,0 0,0 0,0 -0.01,0 -0.02,0 -0.03,0z"/>
   <path class="fil1" d="M3.12 2.03c0,0.29 -0.1,0.52 -0.29,0.72 -0.03,0.03 -0.06,0.04 -0.11,0.03 -0.04,-0.01 -0.06,-0.04 -0.07,-0.08 -0.01,-0.04 0,-0.08 0.03,-0.1 0.03,-0.04 0.07,-0.08 0.09,-0.12 0.07,-0.09 0.11,-0.19 0.13,-0.3 0.01,-0.07 0.01,-0.14 0,-0.21 -0.02,-0.18 -0.09,-0.33 -0.21,-0.47 -0.02,-0.01 -0.03,-0.03 -0.04,-0.06 -0.01,-0.04 0.01,-0.09 0.05,-0.12 0.04,-0.02 0.09,-0.02 0.13,0.02 0.05,0.05 0.1,0.11 0.15,0.18 0.07,0.12 0.11,0.24 0.13,0.38 0.01,0.05 0.01,0.1 0.01,0.13z"/>
   <path class="fil1" d="M2.73 2.06c0,0.15 -0.06,0.3 -0.18,0.42 -0.04,0.04 -0.11,0.04 -0.15,0 -0.04,-0.04 -0.04,-0.11 0,-0.15 0.05,-0.06 0.09,-0.13 0.1,-0.2 0.03,-0.13 0,-0.25 -0.09,-0.35 -0.02,-0.02 -0.03,-0.04 -0.04,-0.06 -0.01,-0.05 0.01,-0.1 0.05,-0.12 0.04,-0.03 0.09,-0.02 0.13,0.01 0.04,0.04 0.08,0.09 0.11,0.15 0.05,0.09 0.07,0.18 0.07,0.3z"/>
  </g>
 </g>
</svg>
