<?xml version="1.0" encoding="UTF-8"?>
<!DOCTYPE svg PUBLIC "-//W3C//DTD SVG 1.1//EN" "http://www.w3.org/Graphics/SVG/1.1/DTD/svg11.dtd">
<!-- Creator: CorelDRAW 2020 (64 Bit) -->
<svg xmlns="http://www.w3.org/2000/svg" xml:space="preserve" width="200px" height="200px" version="1.1" style="shape-rendering:geometricPrecision; text-rendering:geometricPrecision; image-rendering:optimizeQuality; fill-rule:evenodd; clip-rule:evenodd"
viewBox="0 0 4.21 4.21"
 xmlns:xlink="http://www.w3.org/1999/xlink"
 xmlns:xodm="http://www.corel.com/coreldraw/odm/2003">
 <defs>
  <style type="text/css">
   <![CDATA[
    .fil1 {fill:#FEFEFE;fill-rule:nonzero}
    .fil0 {fill:#2BC48A;fill-rule:nonzero}
   ]]>
  </style>
 </defs>
 <g id="Camada_x0020_1">
  <metadata id="CorelCorpID_0Corel-Layer"/>
  <g id="_728458286688">
   <path class="fil0" d="M4.21 2.1c0,1.17 -0.94,2.11 -2.11,2.11 -1.16,0 -2.1,-0.94 -2.1,-2.11 0,-1.16 0.94,-2.1 2.1,-2.1 1.17,0 2.11,0.94 2.11,2.1z"/>
   <path class="fil1" d="M1.13 1.33c0,-0.06 0.01,-0.07 0.07,-0.07 0.14,0 0.28,0 0.42,0 0.02,0 0.04,0.01 0.06,0.03 0.02,0.02 0.03,0.05 0.05,0.08 0.03,0.04 0.07,0.06 0.13,0.06 0.36,0 0.71,0 1.07,0 0.07,0 0.07,0.01 0.07,0.08 0,0.03 0,0.06 0,0.1 -0.02,0 -0.04,0 -0.06,0 -0.51,0 -1.02,0 -1.53,0 -0.09,0 -0.13,0.03 -0.15,0.12 -0.04,0.21 -0.08,0.42 -0.12,0.62 -0.01,-0.01 -0.01,-0.02 -0.01,-0.03 0,-0.33 0,-0.66 0,-0.99zm1.97 0.27c0,-0.04 0,-0.08 0,-0.11 -0.01,-0.09 -0.05,-0.14 -0.13,-0.15 -0.02,0 -0.04,0 -0.06,0 -0.34,0 -0.69,0 -1.04,0 -0.04,0 -0.06,-0.01 -0.08,-0.04 -0.04,-0.11 -0.12,-0.15 -0.24,-0.14 -0.11,0.01 -0.22,0.01 -0.34,0.01 -0.07,-0.01 -0.13,0.02 -0.16,0.09 0,0.57 0,1.13 0,1.7 0.04,0.07 0.11,0.09 0.19,0.09 0.53,0 1.07,0 1.61,0 0.1,0 0.14,-0.04 0.16,-0.15 0.05,-0.28 0.1,-0.56 0.16,-0.85 0.01,-0.08 0.03,-0.16 0.05,-0.25 0,0 0,-0.01 0,-0.01 0,-0.03 0,-0.07 0,-0.1 -0.05,-0.07 -0.05,-0.07 -0.12,-0.09z"/>
   <path class="fil0" d="M3 1.6c-0.02,0 -0.04,0 -0.06,0 -0.51,0 -1.02,0 -1.53,0 -0.09,0 -0.13,0.04 -0.15,0.13 -0.04,0.21 -0.08,0.42 -0.12,0.62 -0.01,-0.01 -0.01,-0.02 -0.01,-0.03 0,-0.33 0,-0.66 0,-0.99 0,-0.06 0.01,-0.07 0.07,-0.07 0.14,0 0.28,0 0.42,0 0.02,0 0.04,0.01 0.06,0.03 0.02,0.02 0.03,0.05 0.05,0.08 0.03,0.04 0.07,0.06 0.13,0.06 0.36,0 0.71,0 1.06,0 0.08,0 0.08,0.01 0.08,0.08 0,0.03 0,0.06 0,0.09z"/>
  </g>
 </g>
</svg>
