<?xml version="1.0" encoding="UTF-8"?>
<!DOCTYPE svg PUBLIC "-//W3C//DTD SVG 1.1//EN" "http://www.w3.org/Graphics/SVG/1.1/DTD/svg11.dtd">
<!-- Creator: CorelDRAW 2020 (64 Bit) -->
<svg xmlns="http://www.w3.org/2000/svg" xml:space="preserve" width="200px" height="200px" version="1.1" style="shape-rendering:geometricPrecision; text-rendering:geometricPrecision; image-rendering:optimizeQuality; fill-rule:evenodd; clip-rule:evenodd"
viewBox="0 0 5.73 5.73"
 xmlns:xlink="http://www.w3.org/1999/xlink"
 xmlns:xodm="http://www.corel.com/coreldraw/odm/2003">
 <defs>
  <style type="text/css">
   <![CDATA[
    .fil1 {fill:#FEFEFE;fill-rule:nonzero}
    .fil0 {fill:#2BC48A;fill-rule:nonzero}
   ]]>
  </style>
 </defs>
 <g id="Camada_x0020_1">
  <metadata id="CorelCorpID_0Corel-Layer"/>
  <g id="_728574651712">
   <path class="fil0" d="M5.73 2.86c0,1.59 -1.28,2.87 -2.87,2.87 -1.58,0 -2.86,-1.28 -2.86,-2.87 0,-1.58 1.28,-2.86 2.86,-2.86 1.59,0 2.87,1.28 2.87,2.86z"/>
   <path class="fil1" d="M1.56 2.16l0 2.32 2.61 0 0 -3.49 -1.43 0 -1.18 1.17zm1.22 0.05l0 -1.06 1.23 0 0 3.17 -2.29 0 0 -2.11 1.06 0z"/>
   <polygon class="fil1" points="1.95,2.83 3.72,2.83 3.72,2.69 1.95,2.69 "/>
   <polygon class="fil1" points="1.95,3.32 3.72,3.32 3.72,3.18 1.95,3.18 "/>
   <polygon class="fil1" points="1.95,3.81 3.72,3.81 3.72,3.67 1.95,3.67 "/>
  </g>
 </g>
</svg>
