<?xml version="1.0" encoding="UTF-8"?>
<!DOCTYPE svg PUBLIC "-//W3C//DTD SVG 1.1//EN" "http://www.w3.org/Graphics/SVG/1.1/DTD/svg11.dtd">
<!-- Creator: CorelDRAW 2020 (64 Bit) -->
<svg xmlns="http://www.w3.org/2000/svg" xml:space="preserve" width="200px" height="200px" version="1.1" style="shape-rendering:geometricPrecision; text-rendering:geometricPrecision; image-rendering:optimizeQuality; fill-rule:evenodd; clip-rule:evenodd"
viewBox="0 0 6.52 6.52"
 xmlns:xlink="http://www.w3.org/1999/xlink"
 xmlns:xodm="http://www.corel.com/coreldraw/odm/2003">
 <defs>
  <style type="text/css">
   <![CDATA[
    .fil1 {fill:#FEFEFE;fill-rule:nonzero}
    .fil0 {fill:#2BC48A;fill-rule:nonzero}
   ]]>
  </style>
 </defs>
 <g id="Camada_x0020_1">
  <metadata id="CorelCorpID_0Corel-Layer"/>
  <g id="_728543659600">
   <path class="fil0" d="M6.52 3.26c0,1.8 -1.46,3.26 -3.26,3.26 -1.8,0 -3.26,-1.46 -3.26,-3.26 0,-1.8 1.46,-3.26 3.26,-3.26 1.8,0 3.26,1.46 3.26,3.26z"/>
   <polygon class="fil1" points="3.11,2.01 2.53,2.01 2.53,1.78 1.53,2.16 2.53,2.54 2.53,2.29 3.11,2.29 "/>
   <polygon class="fil1" points="3.31,2.3 3.89,2.3 3.89,2.54 4.9,2.16 3.89,1.78 3.89,2.03 3.31,2.03 "/>
   <polygon class="fil1" points="3.35,2.25 3.35,1.67 3.59,1.67 3.21,0.66 2.82,1.67 3.07,1.67 3.07,2.25 "/>
   <polygon class="fil1" points="3.07,2.05 3.07,2.63 2.83,2.63 3.22,3.64 3.6,2.63 3.35,2.63 3.35,2.05 "/>
   <path class="fil1" d="M3.13 4.47l0.91 0.01c0,0 0.15,-0.06 0.14,-0.18l0.01 -0.84c0,0 -0.1,-0.24 -0.28,0l-0.01 0.01c0,0 0.04,-0.15 -0.02,-0.19 0,0 -0.13,-0.16 -0.25,0.05 0,0 0.03,-0.22 -0.09,-0.24 0,0 -0.12,-0.05 -0.19,0.1 0,0 0.01,-0.37 0,-0.4 0,0 0.03,-0.27 -0.13,-0.27 0,0 -0.2,-0.03 -0.14,0.39l-0.01 0.64c0,0 0.01,0.13 -0.08,0.07l-0.13 -0.23c0,0 -0.1,-0.06 -0.17,-0.01 -0.06,0.04 -0.02,0.13 -0.01,0.15 0,0 0.41,0.96 0.45,0.94z"/>
   <path class="fil0" d="M3.21 2.44l0 0c-0.03,0 -0.1,0.01 -0.15,0.07 -0.07,0.08 -0.09,0.21 -0.06,0.4l0 0.55 -0.07 -0.11 -0.01 -0.02 -0.02 -0.01c-0.01,-0.01 -0.07,-0.04 -0.14,-0.04 -0.05,0 -0.08,0.01 -0.11,0.03 -0.05,0.03 -0.08,0.09 -0.07,0.15 0,0.04 0.01,0.08 0.02,0.1l0 0 0.01 0 0 0.01c0,0 0.1,0.23 0.21,0.47 0.06,0.13 0.11,0.24 0.15,0.32 0.07,0.15 0.1,0.19 0.16,0.19 0,0 0,0 0,0l0.91 0.01 0.02 0 0.01 -0.01c0.08,-0.03 0.2,-0.11 0.19,-0.25l0 -0.84 0 -0.02 0 -0.01c-0.01,-0.02 -0.07,-0.16 -0.2,-0.16 -0.03,0 -0.05,0.01 -0.08,0.02 -0.01,-0.02 -0.03,-0.05 -0.05,-0.07 -0.02,-0.02 -0.08,-0.08 -0.16,-0.08 -0.02,0 -0.05,0.01 -0.07,0.02 -0.02,-0.07 -0.06,-0.13 -0.14,-0.15 -0.01,0 -0.04,-0.01 -0.07,-0.01 -0.02,0 -0.04,0 -0.06,0.01 0,-0.14 0,-0.2 0,-0.22 0,-0.05 0.01,-0.2 -0.07,-0.28 -0.03,-0.04 -0.08,-0.07 -0.14,-0.07 0,0 -0.01,0 -0.01,0l0 0zm0 0.08c0.01,0 0.01,0 0.01,0 0,0 0,0 0,0 0.16,0 0.13,0.27 0.13,0.27 0.01,0.03 0,0.4 0,0.4 0.04,-0.09 0.1,-0.11 0.14,-0.11 0.03,0 0.05,0.01 0.05,0.01 0.12,0.02 0.09,0.24 0.09,0.24 0.05,-0.08 0.1,-0.11 0.14,-0.11 0.06,0 0.11,0.06 0.11,0.06 0.06,0.04 0.02,0.19 0.02,0.19l0.01 -0.01c0.06,-0.08 0.11,-0.11 0.15,-0.11 0.08,0 0.13,0.11 0.13,0.11l-0.01 0.84c0.01,0.12 -0.14,0.18 -0.14,0.18l-0.91 -0.01c0,0 0,0 0,0 -0.04,0 -0.45,-0.94 -0.45,-0.94 -0.01,-0.02 -0.05,-0.11 0.01,-0.15 0.02,-0.02 0.04,-0.02 0.07,-0.02 0.05,0 0.1,0.03 0.1,0.03l0.13 0.23c0.02,0.01 0.03,0.02 0.04,0.02 0.05,0 0.04,-0.09 0.04,-0.09l0.01 -0.64c-0.05,-0.36 0.09,-0.39 0.13,-0.39z"/>
   <path class="fil1" d="M3.98 4.69l-0.73 0c-0.04,0 -0.08,-0.04 -0.08,-0.08l0 -0.11c0,-0.04 0.04,-0.07 0.08,-0.07l0.73 0c0.04,0 0.07,0.03 0.07,0.07l0 0.11c0,0.04 -0.03,0.08 -0.07,0.08z"/>
   <polygon class="fil1" points="3.09,5.66 4.13,5.66 4.13,4.67 3.09,4.67 "/>
  </g>
 </g>
</svg>
