<?xml version="1.0" encoding="UTF-8"?>
<!DOCTYPE svg PUBLIC "-//W3C//DTD SVG 1.1//EN" "http://www.w3.org/Graphics/SVG/1.1/DTD/svg11.dtd">
<!-- Creator: CorelDRAW 2020 (64 Bit) -->
<svg xmlns="http://www.w3.org/2000/svg" xml:space="preserve" width="37.1106mm" height="9.4148mm" version="1.1" style="shape-rendering:geometricPrecision; text-rendering:geometricPrecision; image-rendering:optimizeQuality; fill-rule:evenodd; clip-rule:evenodd"
viewBox="0 0 264.48 67.1"
 xmlns:xlink="http://www.w3.org/1999/xlink"
 xmlns:xodm="http://www.corel.com/coreldraw/odm/2003">
 <defs>
  <style type="text/css">
   <![CDATA[
    .fil0 {fill:#0D7746}
    .fil1 {fill:#2BC48A}
    .fil3 {fill:#0D7746;fill-rule:nonzero}
    .fil2 {fill:#2BC48A;fill-rule:nonzero}
   ]]>
  </style>
 </defs>
 <g id="Camada_x0020_1">
  <metadata id="CorelCorpID_0Corel-Layer"/>
  <g id="_728461149040">
   <g>
    <polygon class="fil0" points="8.01,3 109.16,3 109.16,11.26 112.16,11.26 112.16,0 5.01,0 5.01,62.09 112.16,62.09 112.16,50.83 109.16,50.83 109.16,59.09 8.01,59.09 "/>
    <polygon class="fil1" points="3,8.01 104.15,8.01 104.15,16.27 107.16,16.27 107.16,5.01 -0,5.01 -0,67.1 107.16,67.1 107.16,55.83 104.15,55.83 104.15,64.09 3,64.09 "/>
   </g>
   <path class="fil2" d="M31.8 49.11l-9.15 -26.36 -0.18 0c0.25,3.92 0.37,7.59 0.37,11.01l0 15.35 -4.68 0 0 -31.56 7.27 0 8.77 25.11 0.13 0 9.02 -25.11 7.29 0 0 31.56 -4.96 0 0 -15.61c0,-1.57 0.04,-3.61 0.12,-6.13 0.07,-2.52 0.15,-4.05 0.21,-4.58l-0.18 0 -9.47 26.31 -4.56 0zm33.6 0.44c-3.71,0 -6.62,-1.08 -8.71,-3.25 -2.09,-2.17 -3.14,-5.16 -3.14,-8.96 0,-3.9 0.97,-6.97 2.91,-9.2 1.94,-2.23 4.61,-3.34 8.01,-3.34 3.15,0 5.64,0.96 7.46,2.87 1.83,1.92 2.74,4.55 2.74,7.91l0 2.74 -15.9 0c0.07,2.31 0.69,4.1 1.87,5.34 1.19,1.25 2.84,1.86 4.99,1.86 1.41,0 2.72,-0.13 3.93,-0.4 1.22,-0.27 2.53,-0.71 3.92,-1.33l0 4.13c-1.24,0.59 -2.49,1.01 -3.76,1.25 -1.26,0.24 -2.71,0.37 -4.33,0.37zm-0.93 -20.91c-1.61,0 -2.9,0.51 -3.87,1.53 -0.97,1.02 -1.55,2.52 -1.74,4.48l10.83 0c-0.03,-1.97 -0.5,-3.47 -1.42,-4.49 -0.92,-1.02 -2.19,-1.53 -3.79,-1.53zm29.39 20.47l-0.71 -3.12 -0.26 0c-0.71,1.11 -1.71,1.98 -3.01,2.62 -1.3,0.63 -2.79,0.95 -4.46,0.95 -2.89,0 -5.05,-0.72 -6.48,-2.16 -1.42,-1.44 -2.14,-3.62 -2.14,-6.54l0 -15.61 5.11 0 0 14.72c0,1.83 0.38,3.2 1.13,4.11 0.74,0.91 1.92,1.37 3.52,1.37 2.13,0 3.7,-0.63 4.69,-1.91 1,-1.27 1.5,-3.41 1.5,-6.4l0 -11.89 5.1 0 0 23.87 -3.99 0z"/>
   <path class="fil3" d="M113.77 18.3c3.24,0 6.09,0.63 8.55,1.9 2.46,1.27 4.36,3.07 5.7,5.41 1.34,2.34 2.01,5.06 2.01,8.16 0,3.09 -0.67,5.8 -2.01,8.11 -1.34,2.31 -3.24,4.1 -5.7,5.37 -2.46,1.27 -5.31,1.9 -8.55,1.9l-10.78 0 0 -30.85 10.78 0zm-0.22 25.59c3.24,0 5.75,-0.88 7.51,-2.65 1.77,-1.77 2.65,-4.26 2.65,-7.47 0,-3.21 -0.88,-5.72 -2.65,-7.54 -1.77,-1.81 -4.27,-2.72 -7.51,-2.72l-4.38 0 0 20.38 4.38 0zm21.12 -22.14c-1.09,0 -2,-0.35 -2.72,-1.04 -0.72,-0.69 -1.08,-1.55 -1.08,-2.59 0,-1.03 0.36,-1.89 1.08,-2.59 0.72,-0.69 1.63,-1.04 2.72,-1.04 1.09,0 2,0.35 2.72,1.04 0.72,0.69 1.08,1.55 1.08,2.59 0,1.03 -0.36,1.89 -1.08,2.59 -0.72,0.69 -1.63,1.04 -2.72,1.04zm3.05 2.92l0 24.49 -6.19 0 0 -24.49 6.19 0zm16.53 -0.35c2.92,0 5.27,0.92 7.07,2.76 1.8,1.84 2.7,4.41 2.7,7.71l0 14.37 -6.19 0 0 -13.53c0,-1.94 -0.49,-3.44 -1.46,-4.49 -0.97,-1.05 -2.3,-1.57 -3.98,-1.57 -1.71,0 -3.06,0.52 -4.04,1.57 -0.99,1.05 -1.48,2.54 -1.48,4.49l0 13.53 -6.19 0 0 -24.49 6.19 0 0 3.05c0.83,-1.06 1.88,-1.89 3.16,-2.5 1.28,-0.6 2.69,-0.91 4.22,-0.91zm26.3 0c1.86,0 3.51,0.41 4.95,1.22 1.44,0.81 2.57,2 3.38,3.58 0.81,1.58 1.22,3.47 1.22,5.68l0 14.37 -6.19 0 0 -13.53c0,-1.94 -0.49,-3.44 -1.46,-4.49 -0.97,-1.05 -2.3,-1.57 -3.98,-1.57 -1.71,0 -3.06,0.52 -4.04,1.57 -0.99,1.05 -1.48,2.54 -1.48,4.49l0 13.53 -6.19 0 0 -32.71 6.19 0 0 11.27c0.8,-1.06 1.86,-1.89 3.18,-2.5 1.33,-0.6 2.8,-0.91 4.42,-0.91zm35.05 12.07c0,0.88 -0.06,1.68 -0.18,2.39l-17.9 0c0.15,1.77 0.77,3.15 1.86,4.15 1.09,1 2.43,1.5 4.02,1.5 2.3,0 3.93,-0.99 4.91,-2.96l6.67 0c-0.71,2.36 -2.06,4.3 -4.07,5.81 -2,1.52 -4.46,2.28 -7.38,2.28 -2.36,0 -4.47,-0.52 -6.34,-1.57 -1.87,-1.05 -3.33,-2.53 -4.38,-4.44 -1.05,-1.92 -1.57,-4.13 -1.57,-6.63 0,-2.53 0.52,-4.76 1.55,-6.67 1.03,-1.92 2.48,-3.39 4.33,-4.42 1.86,-1.03 3.99,-1.55 6.41,-1.55 2.33,0 4.41,0.5 6.25,1.5 1.84,1 3.27,2.42 4.29,4.27 1.02,1.84 1.52,3.96 1.52,6.34zm-6.41 -1.77c-0.03,-1.59 -0.6,-2.87 -1.72,-3.82 -1.12,-0.96 -2.49,-1.44 -4.11,-1.44 -1.53,0 -2.82,0.46 -3.87,1.39 -1.05,0.93 -1.69,2.22 -1.92,3.87l11.63 0zm10.91 -12.86c-1.09,0 -2,-0.35 -2.72,-1.04 -0.72,-0.69 -1.08,-1.55 -1.08,-2.59 0,-1.03 0.36,-1.89 1.08,-2.59 0.72,-0.69 1.63,-1.04 2.72,-1.04 1.09,0 2,0.35 2.72,1.04 0.72,0.69 1.08,1.55 1.08,2.59 0,1.03 -0.36,1.89 -1.08,2.59 -0.72,0.69 -1.63,1.04 -2.72,1.04zm3.05 2.92l0 24.49 -6.19 0 0 -24.49 6.19 0zm9.15 3.8c0.8,-1.3 1.83,-2.31 3.12,-3.05 1.28,-0.74 2.75,-1.11 4.4,-1.11l0 6.5 -1.64 0c-1.94,0 -3.41,0.46 -4.4,1.37 -0.99,0.91 -1.48,2.51 -1.48,4.77l0 12.2 -6.19 0 0 -24.49 6.19 0 0 3.8zm19.4 21.08c-2.36,0 -4.48,-0.52 -6.36,-1.57 -1.89,-1.05 -3.37,-2.53 -4.44,-4.44 -1.08,-1.92 -1.61,-4.13 -1.61,-6.63 0,-2.51 0.55,-4.72 1.66,-6.63 1.1,-1.91 2.61,-3.4 4.53,-4.44 1.92,-1.05 4.05,-1.57 6.41,-1.57 2.36,0 4.49,0.52 6.41,1.57 1.91,1.05 3.43,2.53 4.53,4.44 1.11,1.92 1.66,4.13 1.66,6.63 0,2.5 -0.57,4.71 -1.7,6.63 -1.13,1.92 -2.67,3.4 -4.6,4.44 -1.93,1.05 -4.09,1.57 -6.48,1.57zm0 -5.39c1.12,0 2.17,-0.27 3.16,-0.82 0.99,-0.55 1.78,-1.36 2.36,-2.45 0.59,-1.09 0.88,-2.42 0.88,-3.98 0,-2.33 -0.61,-4.12 -1.83,-5.37 -1.22,-1.25 -2.72,-1.88 -4.49,-1.88 -1.77,0 -3.25,0.63 -4.44,1.88 -1.19,1.25 -1.79,3.04 -1.79,5.37 0,2.33 0.58,4.12 1.75,5.37 1.16,1.25 2.63,1.88 4.4,1.88z"/>
  </g>
 </g>
</svg>
