<?xml version="1.0" encoding="UTF-8"?>
<!DOCTYPE svg PUBLIC "-//W3C//DTD SVG 1.1//EN" "http://www.w3.org/Graphics/SVG/1.1/DTD/svg11.dtd">
<!-- Creator: CorelDRAW 2020 (64 Bit) -->
<svg xmlns="http://www.w3.org/2000/svg" xml:space="preserve" width="1175px" height="357px" version="1.1" style="shape-rendering:geometricPrecision; text-rendering:geometricPrecision; image-rendering:optimizeQuality; fill-rule:evenodd; clip-rule:evenodd"
viewBox="0 0 162.57 49.33"
 xmlns:xlink="http://www.w3.org/1999/xlink"
 xmlns:xodm="http://www.corel.com/coreldraw/odm/2003">
 <defs>
  <style type="text/css">
   <![CDATA[
    .str0 {stroke:#0D7746;stroke-width:0.65;stroke-miterlimit:22.9256}
    .fil3 {fill:none;fill-rule:nonzero}
    .fil0 {fill:#2BC48A}
    .fil2 {fill:#FEFEFE;fill-rule:nonzero}
    .fil1 {fill:#2BC48A;fill-rule:nonzero}
   ]]>
  </style>
 </defs>
 <g id="Camada_x0020_1">
  <metadata id="CorelCorpID_0Corel-Layer"/>
  <polygon class="fil0" points="35.48,0 147.37,0 160.6,23.89 147.37,47.77 34.76,47.77 34.76,40.65 35.48,40.65 35.48,47.05 146.65,47.05 159.62,23.89 146.65,0.72 35.48,0.72 "/>
  <polygon class="fil0" points="38.59,1.55 150.48,1.55 162.57,23.89 148.69,49.33 37.87,49.33 37.87,42.21 38.59,42.21 38.59,48.61 147.97,48.61 161.58,23.89 149.76,2.27 38.59,2.27 "/>
  <g id="_728456692880">
   <g>
    <path class="fil1" d="M38.75 22.99c0,7.65 -6.2,13.84 -13.84,13.84 -7.64,0 -13.84,-6.19 -13.84,-13.84 0,-7.64 6.2,-13.83 13.84,-13.83 7.64,0 13.84,6.19 13.84,13.83z"/>
    <path class="fil2" d="M23.24 14.23c0.37,0.33 0.41,0.76 0.35,1.21 -0.12,0.89 -0.25,1.78 -0.38,2.66 -0.02,0.14 -0.06,0.27 -0.11,0.4 -0.14,0.4 -0.42,0.59 -0.85,0.59 -0.29,-0.01 -0.59,-0.01 -0.88,-0.03 -0.28,-0.02 -0.49,0.1 -0.64,0.33 -0.21,0.3 -0.32,0.63 -0.33,0.99 -0.06,2.09 0.46,4.04 1.46,5.86 0.2,0.37 0.46,0.72 0.73,1.05 0.17,0.21 0.42,0.33 0.68,0.4 0.2,0.05 0.38,0.03 0.54,-0.09 0.23,-0.16 0.45,-0.31 0.68,-0.47 0.46,-0.31 0.84,-0.3 1.25,0.09 0.22,0.21 0.41,0.45 0.61,0.68 0.38,0.43 0.75,0.87 1.12,1.31 0.1,0.11 0.19,0.22 0.27,0.34 0.24,0.33 0.4,0.68 0.28,1.1 -0.05,0.09 -0.11,0.19 -0.16,0.29 -0.2,0.2 -0.37,0.41 -0.58,0.59 -0.93,0.8 -2,1.09 -3.2,0.83 -0.24,-0.05 -0.47,-0.15 -0.71,-0.23 -0.17,-0.09 -0.34,-0.18 -0.51,-0.28 -0.18,-0.14 -0.38,-0.28 -0.56,-0.43 -0.91,-0.78 -1.56,-1.75 -2.11,-2.79 -0.66,-1.25 -1.15,-2.57 -1.55,-3.93 -0.49,-1.65 -0.87,-3.33 -0.95,-5.06 -0.05,-0.97 0,-1.92 0.28,-2.86 0.07,-0.27 0.18,-0.53 0.27,-0.8 0.1,-0.17 0.19,-0.34 0.28,-0.51 0.03,-0.03 0.06,-0.06 0.09,-0.1 0.84,-1.18 2,-1.65 3.42,-1.51 0.31,0.04 0.61,0.14 0.92,0.21 0.09,0.06 0.19,0.11 0.29,0.16z"/>
    <path class="fil2" d="M29.22 27.23c-0.05,-0.02 -0.09,-0.02 -0.13,-0.04 -0.45,-0.14 -0.6,-0.69 -0.29,-1.05 0.2,-0.21 0.4,-0.42 0.58,-0.65 0.63,-0.81 1.05,-1.73 1.26,-2.74 0.11,-0.55 0.16,-1.11 0.13,-1.68 -0.09,-1.48 -0.6,-2.8 -1.55,-3.94 -0.13,-0.17 -0.28,-0.31 -0.42,-0.47 -0.29,-0.33 -0.17,-0.85 0.23,-1.02 0.06,-0.03 0.12,-0.04 0.19,-0.06 0.04,0 0.09,0 0.14,0 0.01,0 0.03,0.01 0.04,0.01 0.13,0.03 0.25,0.09 0.34,0.18 0.67,0.68 1.21,1.44 1.61,2.31 0.41,0.89 0.64,1.82 0.71,2.8 0,0.09 0.01,0.18 0.02,0.27 0,0.17 0,0.34 0,0.51 -0.01,0.02 -0.01,0.05 -0.01,0.07 -0.02,0.48 -0.08,0.95 -0.19,1.42 -0.34,1.49 -1.04,2.77 -2.12,3.86 -0.1,0.11 -0.22,0.18 -0.37,0.2 -0.01,0.01 -0.02,0.01 -0.03,0.02 -0.05,0 -0.1,0 -0.14,0z"/>
    <path class="fil2" d="M29.78 21.3c-0.03,1.74 -0.6,3.14 -1.74,4.31 -0.18,0.19 -0.41,0.25 -0.66,0.18 -0.24,-0.07 -0.39,-0.24 -0.45,-0.48 -0.05,-0.24 0.02,-0.44 0.18,-0.61 0.21,-0.21 0.39,-0.43 0.56,-0.67 0.38,-0.57 0.62,-1.18 0.74,-1.85 0.06,-0.41 0.08,-0.81 0.04,-1.22 -0.11,-1.08 -0.54,-2.01 -1.28,-2.8 -0.11,-0.11 -0.2,-0.22 -0.24,-0.37 -0.06,-0.28 0.06,-0.57 0.31,-0.71 0.24,-0.15 0.56,-0.12 0.76,0.08 0.34,0.33 0.63,0.7 0.88,1.11 0.44,0.7 0.71,1.45 0.83,2.27 0.04,0.28 0.05,0.57 0.07,0.76z"/>
    <path class="fil2" d="M27.42 21.49c-0.02,0.91 -0.37,1.77 -1.06,2.48 -0.26,0.26 -0.66,0.27 -0.92,0.02 -0.25,-0.24 -0.27,-0.65 -0.02,-0.91 0.33,-0.34 0.55,-0.73 0.65,-1.19 0.15,-0.79 -0.04,-1.49 -0.58,-2.09 -0.1,-0.11 -0.2,-0.22 -0.23,-0.37 -0.06,-0.28 0.06,-0.56 0.3,-0.71 0.24,-0.14 0.56,-0.11 0.76,0.08 0.28,0.26 0.5,0.56 0.67,0.9 0.29,0.53 0.42,1.1 0.43,1.79z"/>
   </g>
   <path class="fil3 str0" d="M9.91 32.81c-0.91,0.4 -1.93,0.61 -3.07,0.61 -1.79,0 -3.27,-0.54 -4.46,-1.61 -1.19,-1.07 -1.86,-2.45 -2.03,-4.15l2.51 -0.35c0.29,1.43 0.78,2.46 1.47,3.08 0.68,0.63 1.53,0.94 2.53,0.94 1.19,0 2.19,-0.4 3,-1.22 0.81,-0.82 1.21,-1.83 1.21,-3.04 0,-1.15 -0.37,-2.1 -1.13,-2.85 -0.75,-0.75 -1.7,-1.12 -2.87,-1.12 -0.47,0 -1.06,0.09 -1.77,0.28l0.28 -2.2c0.17,0.02 0.3,0.03 0.4,0.03 1.08,0 2.04,-0.28 2.9,-0.83 0.85,-0.56 1.28,-1.42 1.28,-2.57 0,-0.92 -0.31,-1.68 -0.93,-2.28 -0.63,-0.6 -1.43,-0.9 -2.41,-0.9 -0.98,0 -1.8,0.3 -2.45,0.92 -0.65,0.62 -1.07,1.55 -1.25,2.78l-2.51 -0.45c0.31,-1.69 1,-2.99 2.09,-3.92 1.08,-0.93 2.44,-1.39 4.05,-1.39 1.12,0 2.14,0.24 3.08,0.72"/>
  </g>
 </g>
</svg>
