<?xml version="1.0" encoding="UTF-8"?>
<!DOCTYPE svg PUBLIC "-//W3C//DTD SVG 1.1//EN" "http://www.w3.org/Graphics/SVG/1.1/DTD/svg11.dtd">
<!-- Creator: CorelDRAW 2020 (64 Bit) -->
<svg xmlns="http://www.w3.org/2000/svg" xml:space="preserve" width="1172px" height="357px" version="1.1" style="shape-rendering:geometricPrecision; text-rendering:geometricPrecision; image-rendering:optimizeQuality; fill-rule:evenodd; clip-rule:evenodd"
viewBox="0 0 146.95 44.7"
 xmlns:xlink="http://www.w3.org/1999/xlink"
 xmlns:xodm="http://www.corel.com/coreldraw/odm/2003">
 <defs>
  <style type="text/css">
   <![CDATA[
    .str0 {stroke:#0D7746;stroke-width:0.59;stroke-miterlimit:22.9256}
    .fil3 {fill:none;fill-rule:nonzero}
    .fil0 {fill:#2BC48A}
    .fil2 {fill:#FEFEFE;fill-rule:nonzero}
    .fil1 {fill:#2BC48A;fill-rule:nonzero}
   ]]>
  </style>
 </defs>
 <g id="Camada_x0020_1">
  <metadata id="CorelCorpID_0Corel-Layer"/>
  <polygon class="fil0" points="31.79,0 133.18,0 145.17,21.65 133.18,43.29 31.13,43.29 31.13,36.84 31.79,36.84 31.79,42.64 132.53,42.64 144.28,21.65 132.53,0.65 31.79,0.65 "/>
  <polygon class="fil0" points="34.61,1.41 136,1.41 146.95,21.65 134.37,44.7 33.96,44.7 33.96,38.24 34.61,38.24 34.61,44.05 133.72,44.05 146.06,21.65 135.35,2.06 34.61,2.06 "/>
  <g id="_728501969680">
   <g>
    <path class="fil1" d="M34.75 20.84c0,6.92 -5.61,12.53 -12.54,12.53 -6.92,0 -12.54,-5.61 -12.54,-12.53 0,-6.93 5.62,-12.54 12.54,-12.54 6.93,0 12.54,5.61 12.54,12.54z"/>
    <path class="fil2" d="M16.42 16.22c0,-0.36 0.06,-0.42 0.41,-0.42 0.84,0 1.67,-0.01 2.51,0.01 0.11,0 0.25,0.08 0.33,0.16 0.12,0.14 0.2,0.31 0.3,0.46 0.19,0.29 0.44,0.42 0.79,0.41 2.11,-0.01 4.23,0 6.34,0 0.43,0 0.46,0.03 0.46,0.46 0,0.17 0,0.37 0,0.57 -0.15,0 -0.27,0 -0.38,0 -3.03,0 -6.06,-0.01 -9.09,-0.01 -0.57,0 -0.81,0.21 -0.92,0.76 -0.22,1.23 -0.45,2.46 -0.73,3.69 -0.01,-0.07 -0.02,-0.14 -0.02,-0.22 0,-1.95 0,-3.92 0,-5.87zm11.7 1.6c0,-0.21 -0.01,-0.44 -0.01,-0.66 -0.01,-0.51 -0.27,-0.8 -0.77,-0.87 -0.1,-0.01 -0.2,-0.01 -0.3,-0.01 -2.07,0 -4.14,0 -6.21,0.01 -0.23,0 -0.38,-0.07 -0.47,-0.27 -0.28,-0.62 -0.75,-0.85 -1.44,-0.79 -0.67,0.06 -1.34,0.02 -2.02,0.01 -0.45,-0.01 -0.79,0.13 -1,0.56 0,3.38 0,6.76 0,10.14 0.26,0.44 0.66,0.51 1.13,0.51 3.2,-0.01 6.4,0 9.6,0 0.62,0 0.87,-0.24 0.98,-0.85 0.3,-1.69 0.62,-3.38 0.93,-5.07 0.09,-0.5 0.19,-0.99 0.29,-1.49 0,-0.03 0,-0.06 0.05,-0.1 0,-0.18 0,-0.37 0,-0.55 -0.3,-0.42 -0.31,-0.44 -0.76,-0.57z"/>
    <path class="fil1" d="M27.55 17.85c-0.15,0 -0.26,0 -0.37,0 -3.03,0 -6.06,0 -9.09,0 -0.57,0 -0.81,0.21 -0.92,0.77 -0.22,1.23 -0.45,2.46 -0.73,3.69 -0.01,-0.07 -0.02,-0.14 -0.02,-0.22 0,-1.96 0,-3.92 0,-5.87 0,-0.36 0.06,-0.42 0.41,-0.42 0.84,0 1.67,-0.01 2.51,0.01 0.11,0 0.25,0.08 0.33,0.16 0.12,0.14 0.2,0.31 0.3,0.46 0.19,0.29 0.44,0.42 0.79,0.41 2.11,-0.01 4.22,0 6.33,0 0.43,0 0.46,0.03 0.46,0.46 0,0.17 0,0.35 0,0.55z"/>
   </g>
   <g>
    <polygon class="fil3 str0" points="8.33,23.58 8.33,15.25 2.53,23.58 "/>
    <polyline class="fil3 str0" points="9.67,30.09 8.33,30.09 8.33,25.67 0.29,25.67 0.29,23.58 8.74,11.59 9.67,11.59 "/>
   </g>
  </g>
 </g>
</svg>
