<?xml version="1.0" encoding="UTF-8"?>
<!DOCTYPE svg PUBLIC "-//W3C//DTD SVG 1.1//EN" "http://www.w3.org/Graphics/SVG/1.1/DTD/svg11.dtd">
<!-- Creator: CorelDRAW 2020 (64 Bit) -->
<svg xmlns="http://www.w3.org/2000/svg" xml:space="preserve" width="97.5372mm" height="30.1943mm" version="1.1" style="shape-rendering:geometricPrecision; text-rendering:geometricPrecision; image-rendering:optimizeQuality; fill-rule:evenodd; clip-rule:evenodd"
viewBox="0 0 1866.03 577.66"
 xmlns:xlink="http://www.w3.org/1999/xlink"
 xmlns:xodm="http://www.corel.com/coreldraw/odm/2003">
 <defs>
  <style type="text/css">
   <![CDATA[
    .str0 {stroke:#0D7746;stroke-width:7.59;stroke-miterlimit:22.9256}
    .fil3 {fill:none;fill-rule:nonzero}
    .fil0 {fill:#2BC48A}
    .fil2 {fill:#FEFEFE;fill-rule:nonzero}
    .fil1 {fill:#2BC48A;fill-rule:nonzero}
   ]]>
  </style>
 </defs>
 <g id="Camada_x0020_1">
  <metadata id="CorelCorpID_0Corel-Layer"/>
  <polygon class="fil0" points="377.72,0 1688.05,0 1843,279.81 1688.05,559.46 369.31,559.46 369.31,476.06 377.72,476.06 377.72,551.05 1679.63,551.05 1831.48,279.81 1679.63,8.42 377.72,8.42 "/>
  <polygon class="fil0" points="414.18,18.2 1724.5,18.2 1866.03,279.81 1703.5,577.66 405.77,577.66 405.77,494.25 414.18,494.25 414.18,569.25 1695.08,569.25 1854.51,279.81 1716.09,26.62 414.18,26.62 "/>
  <g id="_728394797536">
   <g>
    <path class="fil1" d="M416.01 269.28c0,89.49 -72.53,162.03 -162.03,162.03 -89.49,0 -162.03,-72.54 -162.03,-162.03 0,-89.49 72.54,-162.03 162.03,-162.03 89.5,0 162.03,72.54 162.03,162.03z"/>
    <polygon class="fil2" points="246.63,207.35 217.8,207.35 217.8,195.45 167.73,214.41 217.8,233.51 217.8,221.11 246.63,221.11 "/>
    <polygon class="fil2" points="256.46,221.77 285.29,221.77 285.29,233.51 335.35,214.56 285.29,195.45 285.29,208.01 256.46,208.01 "/>
    <polygon class="fil2" points="258.42,219.15 258.42,190.32 270.32,190.32 251.37,140.25 232.26,190.32 244.66,190.32 244.66,219.15 "/>
    <polygon class="fil2" points="244.66,209.32 244.66,238.15 232.76,238.15 251.72,288.21 270.82,238.15 258.42,238.15 258.42,209.32 "/>
    <path class="fil2" d="M247.3 329.53l45.51 0.19c0,0 7.55,-2.73 6.9,-8.68l0.2 -41.88c0,0 -4.82,-11.83 -13.55,-0.11l-0.45 0.53c0,0 1.72,-7.31 -1.34,-9.48 0,0 -6.07,-7.59 -12.48,2.36 0,0 1.56,-10.61 -4.31,-11.67 0,0 -5.72,-2.74 -9.6,5.16 0,0 0.58,-18.55 0,-20.19 0,0 1.67,-13.29 -6.23,-13.15 0,0 -10.09,-1.82 -7.06,19.03l-0.16 32.23c0,0 0.21,6.41 -4.14,3.07l-6.49 -11.46c0,0 -5.16,-2.69 -8.34,-0.5 -3.18,2.2 -1.25,6.5 -0.72,7.87 0,0 20.62,47.28 22.27,46.66z"/>
    <path class="fil1" d="M251.34 228.65l0 0c-1.63,0 -4.78,0.44 -7.36,3.44 -3.37,3.9 -4.37,10.39 -3.04,19.83l-0.13 27.46 -3.3 -5.83 -0.57 -1.01 -1.03 -0.54c-0.35,-0.18 -3.56,-1.8 -7.07,-1.8 -2.04,0 -3.83,0.52 -5.33,1.56 -2.42,1.67 -3.66,4.31 -3.47,7.44 0.13,2.06 0.83,3.85 1.21,4.81l0.1 0.24 0.03 0.09 0.04 0.09c0.05,0.12 5.16,11.83 10.43,23.39 3.11,6.81 5.67,12.25 7.61,16.16 3.57,7.2 4.84,9.47 7.78,9.47 0.07,0 0.13,-0.01 0.22,-0.01l45.31 0.19 0.69 0 0.65 -0.24c3.84,-1.39 10.12,-5.58 9.51,-12.56l0.2 -41.68 0 -0.78 -0.29 -0.72c-0.33,-0.79 -3.35,-7.73 -9.83,-7.73 -1.36,0 -2.72,0.32 -4.04,0.95 -0.47,-1.39 -1.23,-2.68 -2.41,-3.66 -1.01,-1.11 -3.93,-3.83 -8.08,-3.83 -1.05,0 -2.28,0.18 -3.62,0.73 -0.91,-3.33 -2.88,-6.24 -6.63,-7.1 -0.72,-0.27 -1.94,-0.62 -3.51,-0.62 -0.85,0 -1.92,0.1 -3.1,0.48 0.11,-6.91 -0.02,-9.84 -0.18,-11.2 0.22,-2.46 0.56,-9.7 -3.19,-13.95 -1.74,-1.96 -4.09,-3.02 -6.79,-3.05 -0.22,-0.02 -0.49,-0.04 -0.83,-0.04l0 0zm0 3.93c0.38,0 0.6,0.04 0.6,0.04 0.02,0 0.07,0 0.11,0 7.77,0 6.12,13.15 6.12,13.15 0.58,1.65 0,20.19 0,20.19 2.3,-4.66 5.22,-5.62 7.26,-5.62 1.39,0 2.35,0.46 2.35,0.46 5.87,1.05 4.31,11.67 4.31,11.67 2.55,-3.94 5.03,-5.13 7.1,-5.13 3.17,0 5.38,2.77 5.38,2.77 3.06,2.17 1.34,9.48 1.34,9.48l0.45 -0.53c2.9,-3.89 5.36,-5.18 7.37,-5.18 4.02,0 6.19,5.29 6.19,5.29l-0.2 41.88c0.65,5.95 -6.9,8.68 -6.9,8.68l-45.51 -0.19c-0.02,0 -0.02,0.01 -0.04,0.01 -1.88,0 -22.23,-46.66 -22.23,-46.66 -0.52,-1.37 -2.46,-5.67 0.72,-7.87 0.93,-0.64 2.01,-0.86 3.09,-0.86 2.65,0 5.25,1.36 5.25,1.36l6.49 11.46c0.9,0.69 1.61,0.96 2.16,0.96 2.11,0 1.98,-4.03 1.98,-4.03l0.16 -32.23c-2.58,-17.75 4.35,-19.07 6.45,-19.07z"/>
    <path class="fil2" d="M289.55 340.14l-36.27 -0.01c-2.08,0 -3.77,-1.7 -3.77,-3.77l0 -5.35c0,-2.07 1.7,-3.77 3.77,-3.77l36.27 0.01c2.08,0 3.77,1.7 3.77,3.77l0 5.35c0,2.08 -1.72,3.77 -3.77,3.77z"/>
    <polygon class="fil2" points="245.56,388.66 297.28,388.66 297.28,339.46 245.56,339.46 "/>
   </g>
   <path class="fil3 str0" d="M91.95 389.32l-29.38 0 0 -187.1c-7.07,6.79 -16.36,13.53 -27.82,20.26 -11.47,6.74 -21.82,11.8 -30.95,15.14l0 -28.38c16.42,-7.68 30.77,-17.03 43.08,-28.05 12.3,-10.96 21.04,-21.59 26.16,-31.94l18.92 0"/>
  </g>
 </g>
</svg>
