<?xml version="1.0" encoding="UTF-8"?>
<!DOCTYPE svg PUBLIC "-//W3C//DTD SVG 1.1//EN" "http://www.w3.org/Graphics/SVG/1.1/DTD/svg11.dtd">
<!-- Creator: CorelDRAW 2020 (64 Bit) -->
<svg xmlns="http://www.w3.org/2000/svg" xml:space="preserve" width="37.1106mm" height="9.4148mm" version="1.1" style="shape-rendering:geometricPrecision; text-rendering:geometricPrecision; image-rendering:optimizeQuality; fill-rule:evenodd; clip-rule:evenodd"
viewBox="0 0 264.81 67.18"
 xmlns:xlink="http://www.w3.org/1999/xlink"
 xmlns:xodm="http://www.corel.com/coreldraw/odm/2003">
 <defs>
  <style type="text/css">
   <![CDATA[
    .fil0 {fill:white}
    .fil1 {fill:white;fill-rule:nonzero}
   ]]>
  </style>
 </defs>
 <g id="Camada_x0020_1">
  <metadata id="CorelCorpID_0Corel-Layer"/>
  <g id="_728398244960">
   <g>
    <polygon class="fil0" points="8.02,3.01 109.3,3.01 109.3,11.28 112.3,11.28 112.3,0 5.01,0 5.01,62.17 112.3,62.17 112.3,50.89 109.3,50.89 109.3,59.16 8.02,59.16 "/>
    <polygon class="fil0" points="3.01,8.02 104.28,8.02 104.28,16.29 107.29,16.29 107.29,5.01 -0,5.01 -0,67.18 107.29,67.18 107.29,55.9 104.28,55.9 104.28,64.17 3.01,64.17 "/>
   </g>
   <path class="fil1" d="M31.84 49.17l-9.16 -26.39 -0.18 0c0.25,3.92 0.37,7.6 0.37,11.03l0 15.36 -4.68 0 0 -31.6 7.28 0 8.78 25.14 0.13 0 9.04 -25.14 7.3 0 0 31.6 -4.96 0 0 -15.63c0,-1.57 0.04,-3.61 0.12,-6.14 0.07,-2.52 0.15,-4.05 0.21,-4.58l-0.18 0 -9.49 26.35 -4.57 0zm33.65 0.44c-3.72,0 -6.62,-1.08 -8.72,-3.25 -2.09,-2.17 -3.14,-5.16 -3.14,-8.97 0,-3.9 0.97,-6.98 2.91,-9.21 1.95,-2.23 4.62,-3.35 8.02,-3.35 3.15,0 5.64,0.96 7.47,2.88 1.83,1.92 2.74,4.56 2.74,7.92l0 2.74 -15.92 0c0.07,2.32 0.69,4.1 1.87,5.35 1.19,1.25 2.85,1.87 4.99,1.87 1.41,0 2.72,-0.13 3.94,-0.4 1.22,-0.27 2.53,-0.71 3.92,-1.33l0 4.13c-1.24,0.59 -2.49,1.01 -3.76,1.25 -1.26,0.24 -2.71,0.37 -4.34,0.37zm-0.93 -20.93c-1.62,0 -2.91,0.51 -3.88,1.53 -0.97,1.03 -1.55,2.52 -1.74,4.48l10.84 0c-0.03,-1.98 -0.5,-3.47 -1.42,-4.49 -0.92,-1.02 -2.19,-1.53 -3.8,-1.53zm29.43 20.49l-0.72 -3.13 -0.26 0c-0.71,1.11 -1.71,1.98 -3.02,2.62 -1.31,0.63 -2.8,0.95 -4.46,0.95 -2.9,0 -5.06,-0.72 -6.49,-2.16 -1.42,-1.44 -2.14,-3.62 -2.14,-6.55l0 -15.63 5.12 0 0 14.74c0,1.83 0.38,3.2 1.13,4.12 0.75,0.91 1.93,1.37 3.53,1.37 2.13,0 3.7,-0.63 4.7,-1.91 1,-1.28 1.5,-3.42 1.5,-6.41l0 -11.91 5.1 0 0 23.9 -4 0z"/>
   <path class="fil1" d="M113.91 18.32c3.25,0 6.1,0.63 8.56,1.9 2.46,1.27 4.37,3.08 5.71,5.42 1.34,2.35 2.01,5.07 2.01,8.17 0,3.1 -0.67,5.8 -2.01,8.12 -1.34,2.32 -3.25,4.11 -5.71,5.38 -2.46,1.27 -5.32,1.9 -8.56,1.9l-10.8 0 0 -30.89 10.8 0zm-0.22 25.62c3.25,0 5.75,-0.88 7.52,-2.66 1.77,-1.77 2.66,-4.26 2.66,-7.48 0,-3.22 -0.88,-5.73 -2.66,-7.55 -1.77,-1.81 -4.28,-2.72 -7.52,-2.72l-4.38 0 0 20.4 4.38 0zm21.15 -22.17c-1.09,0 -2,-0.35 -2.72,-1.04 -0.72,-0.69 -1.08,-1.56 -1.08,-2.59 0,-1.03 0.36,-1.9 1.08,-2.59 0.72,-0.69 1.63,-1.04 2.72,-1.04 1.09,0 2,0.35 2.72,1.04 0.72,0.69 1.08,1.56 1.08,2.59 0,1.03 -0.36,1.9 -1.08,2.59 -0.72,0.69 -1.63,1.04 -2.72,1.04zm3.05 2.92l0 24.52 -6.2 0 0 -24.52 6.2 0zm16.55 -0.35c2.92,0 5.28,0.92 7.08,2.77 1.8,1.84 2.7,4.42 2.7,7.72l0 14.38 -6.2 0 0 -13.54c0,-1.95 -0.49,-3.44 -1.46,-4.49 -0.97,-1.05 -2.3,-1.57 -3.98,-1.57 -1.71,0 -3.06,0.52 -4.05,1.57 -0.99,1.05 -1.48,2.54 -1.48,4.49l0 13.54 -6.2 0 0 -24.52 6.2 0 0 3.05c0.83,-1.06 1.88,-1.9 3.16,-2.5 1.28,-0.61 2.69,-0.91 4.23,-0.91zm26.33 0c1.86,0 3.51,0.41 4.96,1.22 1.45,0.81 2.57,2.01 3.39,3.58 0.81,1.58 1.22,3.47 1.22,5.69l0 14.38 -6.2 0 0 -13.54c0,-1.95 -0.49,-3.44 -1.46,-4.49 -0.97,-1.05 -2.3,-1.57 -3.98,-1.57 -1.71,0 -3.06,0.52 -4.05,1.57 -0.99,1.05 -1.48,2.54 -1.48,4.49l0 13.54 -6.2 0 0 -32.75 6.2 0 0 11.29c0.8,-1.06 1.86,-1.9 3.19,-2.5 1.33,-0.61 2.8,-0.91 4.43,-0.91zm35.09 12.08c0,0.89 -0.06,1.68 -0.18,2.39l-17.92 0c0.15,1.77 0.77,3.16 1.86,4.16 1.09,1 2.43,1.5 4.03,1.5 2.3,0 3.94,-0.99 4.91,-2.97l6.68 0c-0.71,2.36 -2.07,4.3 -4.07,5.82 -2.01,1.52 -4.47,2.28 -7.39,2.28 -2.36,0 -4.48,-0.52 -6.35,-1.57 -1.87,-1.05 -3.33,-2.53 -4.38,-4.45 -1.05,-1.92 -1.57,-4.13 -1.57,-6.64 0,-2.54 0.52,-4.77 1.55,-6.68 1.03,-1.92 2.48,-3.39 4.34,-4.43 1.86,-1.03 4,-1.55 6.42,-1.55 2.33,0 4.42,0.5 6.26,1.5 1.84,1 3.28,2.43 4.29,4.27 1.02,1.84 1.53,3.96 1.53,6.35zm-6.42 -1.77c-0.03,-1.59 -0.61,-2.87 -1.73,-3.83 -1.12,-0.96 -2.49,-1.44 -4.12,-1.44 -1.53,0 -2.83,0.46 -3.87,1.39 -1.05,0.93 -1.69,2.22 -1.93,3.87l11.64 0zm10.93 -12.88c-1.09,0 -2,-0.35 -2.72,-1.04 -0.72,-0.69 -1.08,-1.56 -1.08,-2.59 0,-1.03 0.36,-1.9 1.08,-2.59 0.72,-0.69 1.63,-1.04 2.72,-1.04 1.09,0 2,0.35 2.72,1.04 0.72,0.69 1.08,1.56 1.08,2.59 0,1.03 -0.36,1.9 -1.08,2.59 -0.72,0.69 -1.63,1.04 -2.72,1.04zm3.05 2.92l0 24.52 -6.2 0 0 -24.52 6.2 0zm9.16 3.81c0.8,-1.3 1.84,-2.32 3.12,-3.05 1.28,-0.74 2.75,-1.11 4.4,-1.11l0 6.51 -1.64 0c-1.95,0 -3.42,0.46 -4.4,1.37 -0.99,0.91 -1.48,2.51 -1.48,4.78l0 12.21 -6.2 0 0 -24.52 6.2 0 0 3.81zm19.43 21.11c-2.36,0 -4.48,-0.52 -6.37,-1.57 -1.89,-1.05 -3.37,-2.53 -4.45,-4.45 -1.08,-1.92 -1.62,-4.13 -1.62,-6.64 0,-2.51 0.55,-4.72 1.66,-6.64 1.11,-1.92 2.62,-3.4 4.54,-4.45 1.92,-1.05 4.06,-1.57 6.42,-1.57 2.36,0 4.5,0.52 6.42,1.57 1.92,1.05 3.43,2.53 4.54,4.45 1.11,1.92 1.66,4.13 1.66,6.64 0,2.51 -0.57,4.72 -1.7,6.64 -1.14,1.92 -2.67,3.4 -4.6,4.45 -1.93,1.05 -4.09,1.57 -6.48,1.57zm0 -5.4c1.12,0 2.18,-0.27 3.16,-0.82 0.99,-0.55 1.78,-1.36 2.37,-2.46 0.59,-1.09 0.89,-2.42 0.89,-3.98 0,-2.33 -0.61,-4.12 -1.84,-5.38 -1.22,-1.25 -2.72,-1.88 -4.49,-1.88 -1.77,0 -3.25,0.63 -4.45,1.88 -1.2,1.25 -1.79,3.05 -1.79,5.38 0,2.33 0.58,4.12 1.75,5.38 1.17,1.25 2.63,1.88 4.4,1.88z"/>
  </g>
 </g>
</svg>
